# xmcd
#
# Track frame offsets:
#	150
#	11655
#	25035
#	36300
#	47175
#	59820
#	68637
#	87825
#	101737
#	123292
#	138027
#	150787
#	165287
#	178200
#	193325
#	206225
#	219857
#	232065
#
# Disc length: 3282 seconds
#
# Revision: 6
# Processed by: cddbd v1.5.2PL0 Copyright (c) Steve Scherf et al.
# Submitted via: audiograbber 1.83.01
#
DISCID=f70cd012
DTITLE=Various Artist - World's Greatest Country Novelty Records  [CD2)
DYEAR=2001
DGENRE=Oldies
TTITLE0=Boxcar Willie - Country Music Nighmare 
TTITLE1=Leroy Van Dyke - The Auctioneer 
TTITLE2=Leroy Pullins - I'm A Nut 
TTITLE3=Ben Colder - That's My Pa 
TTITLE4=Johnny Cash - The One On The Right Is On The Left 
TTITLE5=Andy Griffith - The Fishin' Hole 
TTITLE6=Mac Davis - It's Hard To Be Humble 
TTITLE7=Billy Edd Wheeler - Ode To The Little Brown Shack Out Back 
TTITLE8=Bill Anderson - Double S 
TTITLE9=Ray Stevens - The Streak 
TTITLE10=Johnny Russell - Red Necks, White Socks And Blue Ribbon Beer 
TTITLE11=Jim Stafford - My Girl Bill 
TTITLE12=Moe Bandy and Joe Stampley - Where's The Dress 
TTITLE13=Ben Colder - Don't Go Near The Eskimos 
TTITLE14=Tom T. Hall - I Like Beer 
TTITLE15=Statler Brothers - The Movies
TTITLE16=Burl Ives - The Tail of the Comet Kohoutek 
TTITLE17=Ferlin Husky - Country Music Is Here To Stay 
EXTD=YEAR: 2001
EXTT0=
EXTT1=
EXTT2=
EXTT3=
EXTT4=
EXTT5=
EXTT6=
EXTT7=
EXTT8=
EXTT9=
EXTT10=
EXTT11=
EXTT12=
EXTT13=
EXTT14=
EXTT15=
EXTT16=
EXTT17=
PLAYORDER=
